<svg xmlns="http://www.w3.org/2000/svg">
  <defs>
    <path id="pin" fill-rule="evenodd" d="M9.69 18.933l.003.001C9.89 19.02 10 19 10 19s.11.02.308-.066l.002-.001.006-.003.018-.008a5.741 5.741 0 00.281-.14c.186-.096.446-.24.757-.433.62-.384 1.445-.966 2.274-1.765C15.302 14.988 17 12.493 17 9A7 7 0 103 9c0 3.492 1.698 5.988 3.355 7.584a13.731 13.731 0 002.273 1.765 11.842 11.842 0 00.976.544l.062.029.018.008.006.003zM10 11.25a2.25 2.25 0 100-4.5 2.25 2.25 0 000 4.5z" clip-rule="evenodd" />
    <path id="facebook" d="M30 15.091C30 6.756 23.285 0 15 0S0 6.756 0 15.091C0 22.625 5.484 28.868 12.656 30V19.454H8.848V15.09h3.808v-3.324c0-3.782 2.239-5.872 5.666-5.872 1.64 0 3.358.295 3.358.295v3.714h-1.893c-1.863 0-2.443 1.164-2.443 2.358v2.83h4.16l-.665 4.362h-3.495V30C24.516 28.868 30 22.625 30 15.091z"></path>
    <g id="instagram">
      <path fill-rule="evenodd" clip-rule="evenodd" d="M15 0c-4.074 0-4.584.017-6.184.09-1.597.073-2.688.327-3.642.698-1 .376-1.907.966-2.657 1.73a7.358 7.358 0 00-1.73 2.656C.418 6.128.163 7.22.09 8.817.018 10.416 0 10.925 0 15c0 4.075.017 4.584.09 6.184.073 1.597.327 2.688.698 3.642.376 1 .966 1.907 1.73 2.657a7.359 7.359 0 002.656 1.73c.954.37 2.045.624 3.642.697 1.6.073 2.11.09 6.184.09s4.584-.017 6.184-.09c1.597-.073 2.688-.327 3.642-.698 1-.376 1.907-.966 2.657-1.73a7.358 7.358 0 001.73-2.656c.37-.954.624-2.045.697-3.642.073-1.6.09-2.11.09-6.184s-.017-4.584-.09-6.184c-.073-1.597-.327-2.688-.698-3.642a7.353 7.353 0 00-1.73-2.657 7.358 7.358 0 00-2.656-1.73C23.872.418 22.78.163 21.183.09 19.584.018 19.075 0 15 0zm0 2.703c4.005 0 4.48.015 6.062.087 1.462.067 2.256.31 2.785.517.7.271 1.2.597 1.725 1.121.525.525.85 1.025 1.121 1.725.206.529.45 1.323.517 2.785.072 1.582.087 2.057.087 6.062 0 4.005-.015 4.48-.087 6.062-.067 1.462-.31 2.256-.517 2.785a4.646 4.646 0 01-1.121 1.725 4.642 4.642 0 01-1.725 1.121c-.529.206-1.323.45-2.785.517-1.582.072-2.056.087-6.062.087s-4.48-.015-6.062-.087c-1.462-.067-2.256-.31-2.785-.517a4.646 4.646 0 01-1.725-1.121 4.648 4.648 0 01-1.121-1.725c-.206-.529-.45-1.323-.517-2.785-.072-1.582-.087-2.057-.087-6.062 0-4.005.015-4.48.087-6.062.067-1.462.31-2.256.517-2.785.271-.7.597-1.2 1.121-1.725a4.643 4.643 0 011.725-1.121c.529-.206 1.323-.45 2.785-.517 1.582-.072 2.057-.087 6.062-.087z" fill="currentColor"></path>
      <path fill-rule="evenodd" clip-rule="evenodd" d="M15 20.005a5.005 5.005 0 110-10.01 5.005 5.005 0 010 10.01zM15 7.29a7.71 7.71 0 100 15.42 7.71 7.71 0 000-15.42zm9.953-.14a1.822 1.822 0 11-3.645 0 1.822 1.822 0 013.645 0" fill="currentColor"></path>
    </g>
    <clipPath id="arch-top" clipPathUnits="objectBoundingBox">
      <path d="M 0 1 L 0,0.5 A 0.5,0.5 0,0,1 1,0.5 L 1 1 z" />
    </clipPath>
    <clipPath id="arch-right" clipPathUnits="objectBoundingBox">
      <path d="M 1 1 h-0.5 a 0.5,0.5 0,0,1 0,-1 h0.5 z" />
    </clipPath>
  </defs>
</svg>